<svg xmlns="http://www.w3.org/2000/svg" viewBox="0 0 142 33" fill="none">
  <path d="M0 6.74V32.61H3.76V13.87H4L11.72 32.57H14.84L22.56 13.89H22.81V32.61H26.56V6.74H21.77L13.44 26.85H13.13L4.79 6.74H0Z" fill="white"/>
  <path d="M41.13 33C45.41 33 48.44 30.92 49.31 27.76L45.7 27.11C45 28.95 43.34 29.88 41.17 29.88 37.9 29.88 35.7 27.78 35.6 24.04H49.56V22.7C49.56 15.69 45.31 12.95 40.86 12.95 35.39 12.95 31.79 17.07 31.79 23.03 31.79 29.06 35.34 33 41.13 33ZM35.61 21.21C35.76 18.46 37.78 16.07 40.89 16.07 43.85 16.07 45.8 18.25 45.81 21.21H35.61Z" fill="white"/>
  <path d="M68.51 17.94C67.72 14.92 65.33 12.95 61.08 12.95 56.65 12.95 53.5 15.26 53.5 18.7 53.5 21.45 55.19 23.29 58.87 24.09L62.2 24.81C64.09 25.23 64.97 26.06 64.97 27.28 64.97 28.78 63.35 29.96 60.84 29.96 58.55 29.96 57.08 28.98 56.62 27.08L52.93 27.63C53.57 31.07 56.46 33 60.87 33 65.61 33 68.89 30.51 68.89 27 68.89 24.26 67.13 22.57 63.53 21.74L60.41 21.04C58.25 20.53 57.31 19.81 57.32 18.5 57.31 17.01 58.95 15.95 61.12 15.95 63.5 15.95 64.6 17.25 65.05 18.55L68.51 17.94Z" fill="white"/>
  <path d="M82.26 13.21H78.24V8.56H74.41V13.21H71.54V16.24H74.41V27.69C74.4 31.22 77.12 32.92 80.14 32.86 81.35 32.85 82.17 32.62 82.62 32.46L81.93 29.34C81.67 29.39 81.2 29.5 80.59 29.5 79.35 29.5 78.24 29.1 78.24 26.91V16.24H82.26V13.21Z" fill="white"/>
  <path d="M94.55 33C100.09 33 103.7 29 103.7 23 103.7 16.96 100.09 12.95 94.55 12.95 89.02 12.95 85.4 16.96 85.4 23 85.4 29 89.02 33 94.55 33ZM94.56 29.83C90.95 29.83 89.26 26.71 89.26 22.98 89.26 19.27 90.95 16.11 94.56 16.11 98.16 16.11 99.84 19.27 99.84 22.98 99.84 26.71 98.16 29.83 94.56 29.83Z" fill="white"/>
  <path d="M107.18 8.89H108.23V5.52H110.14C110.22 5.52 110.29 5.52 110.36 5.52L112.21 8.89H113.43L111.46 5.33C112.57 4.96 113.09 4.06 113.09 2.91 113.09 1.39 112.17 0.27 110.13 0.27H107.18V8.89ZM108.23 4.58V1.2H110.09C111.51 1.2 112.05 1.88 112.05 2.91 112.05 3.95 111.51 4.58 110.11 4.58H108.23Z" fill="white"/>
  <path d="M118.84 6.25C118.84 7.46 117.9 8.02 117.15 8.02 116.32 8.02 115.72 7.41 115.72 6.47V2.43H114.72V6.54C114.72 8.19 115.6 8.98 116.83 8.98 117.82 8.98 118.47 8.46 118.77 7.8H118.84V8.89H119.85V2.43H118.84V6.25Z" fill="white"/>
  <path d="M126.32 3.87C126.01 2.96 125.3 2.34 124.01 2.34 122.63 2.34 121.6 3.12 121.6 4.21 121.6 5.1 122.14 5.7 123.34 5.98L124.43 6.23C125.09 6.38 125.4 6.7 125.4 7.14 125.4 7.7 124.81 8.15 123.87 8.15 123.05 8.15 122.53 7.8 122.35 7.11L121.4 7.34C121.63 8.44 122.55 9.03 123.89 9.03 125.41 9.03 126.44 8.21 126.44 7.09 126.44 6.19 125.87 5.62 124.71 5.34L123.73 5.1C122.96 4.91 122.61 4.66 122.61 4.16 122.61 3.6 123.21 3.2 124.01 3.2 124.88 3.2 125.25 3.68 125.42 4.13L126.32 3.87Z" fill="white"/>
  <path d="M132.59 3.87C132.28 2.96 131.57 2.34 130.28 2.34 128.9 2.34 127.87 3.12 127.87 4.21 127.87 5.1 128.41 5.7 129.61 5.98L130.7 6.23C131.36 6.38 131.67 6.7 131.67 7.14 131.67 7.7 131.08 8.15 130.14 8.15 129.32 8.15 128.8 7.8 128.62 7.11L127.67 7.34C127.9 8.44 128.82 9.03 130.16 9.03 131.68 9.03 132.71 8.21 132.71 7.09 132.71 6.19 132.14 5.62 130.97 5.34L130 5.1C129.23 4.91 128.88 4.66 128.88 4.16 128.88 3.6 129.47 3.2 130.28 3.2 131.15 3.2 131.51 3.68 131.69 4.13L132.59 3.87Z" fill="white"/>
  <path d="M134.23 8.89H135.23V2.43H134.23V8.89ZM134.74 1.35C135.13 1.35 135.45 1.04 135.45 0.67 135.45 0.3 135.13 0 134.74 0 134.35 0 134.02 0.3 134.02 0.67 134.02 1.04 134.35 1.35 134.74 1.35Z" fill="white"/>
  <path d="M139 9.04C140.14 9.04 140.74 8.44 140.94 8.02H140.99V8.89H142V4.63C142 2.58 140.42 2.34 139.58 2.34 138.59 2.34 137.47 2.68 136.96 3.86L137.91 4.19C138.13 3.72 138.66 3.22 139.61 3.22 140.54 3.22 140.99 3.7 140.99 4.53V4.56C140.99 5.04 140.5 5 139.31 5.15 138.09 5.31 136.77 5.58 136.77 7.06 136.77 8.32 137.76 9.04 139 9.04ZM139.15 8.15C138.35 8.15 137.77 7.8 137.77 7.11 137.77 6.35 138.47 6.11 139.26 6.01 139.68 5.96 140.82 5.84 140.99 5.64V6.55C140.99 7.36 140.35 8.15 139.15 8.15Z" fill="white"/>
</svg>
